<svg xmlns="http://www.w3.org/2000/svg" version="1.1" xmlns:xlink="http://www.w3.org/1999/xlink" xmlns:svgjs="http://svgjs.com/svgjs" width="1440" height="560" preserveAspectRatio="none" viewBox="0 0 1440 560"><g mask="url(&quot;#SvgjsMask1003&quot;)" fill="none"><path d="M1294.69 229.42a6.83 6.83 0 1 0-4.55 12.88z" fill="rgba(131, 197, 190, 1)"></path><path d="M513.55 548.21L532.09 548.21L532.09 566.75L513.55 566.75z" fill="rgba(131, 197, 190, 1)"></path><path d="M379.48 345.52a19.02 19.02 0 1 0 25.04-28.63z" fill="#037b0b"></path><path d="M136.76 432.84 a8.43 8.43 0 1 0 16.86 0 a8.43 8.43 0 1 0 -16.86 0z" fill="rgba(82, 171, 152, 0.7137254901960784)"></path><path d="M564.75 232.76L612.41 232.76L612.41 280.42L564.75 280.42z" stroke="rgba(131, 197, 190, 1)"></path><path d="M1024.07 5.58a22.61 22.61 0 1 0 38.7 23.38z" stroke="rgba(82, 171, 152, 0.7137254901960784)"></path><path d="M575.42 151.15a22.22 22.22 0 1 0 4.48 44.22z" fill="rgba(131, 197, 190, 1)"></path><path d="M1408.77 148.07L1416.35 148.07L1416.35 172.44L1408.77 172.44z" stroke="rgba(82, 171, 152, 0.7137254901960784)"></path><path d="M1381.1 222.17L1411.74 222.17L1411.74 252.81L1381.1 252.81z" stroke="rgba(82, 171, 152, 0.7137254901960784)"></path><path d="M182.95 159.48L185.66 159.48L185.66 196L182.95 196z" fill="rgba(82, 171, 152, 0.7137254901960784)"></path><path d="M535 68.11L556.83 68.11L556.83 89.94L535 89.94z" fill="#037b0b"></path><path d="M763.68 506.35L803.35 506.35L803.35 546.02L763.68 546.02z" fill="#037b0b"></path><path d="M750.07 170.91L769.32 170.91L769.32 190.16L750.07 190.16z" stroke="rgba(131, 197, 190, 1)"></path><path d="M1404.76 83.6L1436.52 83.6L1436.52 115.36L1404.76 115.36z" fill="rgba(82, 171, 152, 0.7137254901960784)"></path><path d="M1037.13 477.8 a27.12 27.12 0 1 0 54.24 0 a27.12 27.12 0 1 0 -54.24 0z" fill="rgba(82, 171, 152, 0.7137254901960784)"></path><path d="M750.26 509.31L776.23 509.31L776.23 564.75L750.26 564.75z" stroke="#037b0b"></path><path d="M696.14 355.27 a51.71 51.71 0 1 0 103.42 0 a51.71 51.71 0 1 0 -103.42 0z" stroke="rgba(82, 171, 152, 0.7137254901960784)"></path><path d="M758.5 18.48 a32.57 32.57 0 1 0 65.14 0 a32.57 32.57 0 1 0 -65.14 0z" stroke="rgba(131, 197, 190, 1)"></path><path d="M87.34 45.69a14.85 14.85 0 1 0 27.65-10.84z" stroke="rgba(82, 171, 152, 0.7137254901960784)"></path><path d="M1259.49 157.89L1278.39 157.89L1278.39 180.74L1259.49 180.74z" stroke="rgba(82, 171, 152, 0.7137254901960784)"></path><path d="M703.71 32.81L708.26 32.81L708.26 78.42L703.71 78.42z" stroke="#037b0b"></path><path d="M498.91 410.05 a10.9 10.9 0 1 0 21.8 0 a10.9 10.9 0 1 0 -21.8 0z" fill="#037b0b"></path><path d="M1360.04 165.09L1385.56 165.09L1385.56 195.28L1360.04 195.28z" fill="rgba(82, 171, 152, 0.7137254901960784)"></path><path d="M1286.74 195.01L1309.32 195.01L1309.32 215.29L1286.74 215.29z" fill="#037b0b"></path><path d="M306.96 217.05L351.6 217.05L351.6 223.14L306.96 223.14z" stroke="#037b0b"></path><path d="M1397.76 384.05L1400.66 384.05L1400.66 386.95L1397.76 386.95z" stroke="#037b0b"></path><path d="M208.91 152.95L234.1 152.95L234.1 198.65L208.91 198.65z" fill="rgba(131, 197, 190, 1)"></path><path d="M1054.75 591.64a43.27 43.27 0 1 0-54.34-67.36z" fill="rgba(131, 197, 190, 1)"></path><path d="M409.55 102.21L430.09 102.21L430.09 122.75L409.55 122.75z" fill="rgba(131, 197, 190, 1)"></path><path d="M233.47 89.51L237.75 89.51L237.75 93.79L233.47 93.79z" stroke="rgba(131, 197, 190, 1)"></path><path d="M905.81 172.58L943.02 172.58L943.02 209.79L905.81 209.79z" fill="rgba(131, 197, 190, 1)"></path><path d="M276.62-5.31a30.83 30.83 0 1 0 25.33 56.22z" stroke="#037b0b"></path><path d="M481.14 158.9a49.85 49.85 0 1 0 22.81-97.06z" stroke="rgba(131, 197, 190, 1)"></path></g><defs><mask id="SvgjsMask1003"><rect width="1440" height="560" fill="#ffffff"></rect></mask></defs></svg>